{"title":"[Dhamal Rip] Rann (2010) Repack DVD Rip [Dare DEvils]","uid":5375678,"size":937670116,"categoryP":"video","categoryS":"movies","magnet":"?xt=urn:btih:6fd4822be9da8c53e8989eeb57397fcdf2324111&amp;dn=%5BDhamal+Rip%5D+Rann+%282010%29+Repack+DVD+Rip+%5BDare+DEvils%5D&amp;tr=udp%3A%2F%2Ftracker.openbittorrent.com%3A80&amp;tr=udp%3A%2F%2Fopen.demonii.com%3A1337&amp;tr=udp%3A%2F%2Ftracker.coppersurfer.tk%3A6969&amp;tr=udp%3A%2F%2Fexodus.desync.com%3A6969","seeders":0,"leechers":1,"uploader":"luvwithromio","files":-1,"time":1266571022,"description":"Format                           : AVI\nFormat/Info                      : Audio Video Interleave\nFile size                        : 894 MiB\nDuration                         : 2h 17mn\nOverall bit rate                 : 911 Kbps\n\nVideo\nID                               : 0\nFormat                           : MPEG-4 Visual\nFormat profile                   : Simple@L1\nFormat settings, BVOP            : No\nFormat settings, QPel            : No\nFormat settings, GMC             : No warppoints\nFormat settings, Matrix          : Default (MPEG)\nCodec ID                         : DX50\nCodec ID/Hint                    : DivX 5\nDuration                         : 2h 17mn\nBit rate                         : 801 Kbps\nWidth                            : 640 pixels\nHeight                           : 322 pixels\nDisplay aspect ratio             : 1.988\nFrame rate                       : 29.970 fps\nResolution                       : 8 bits\nColorimetry                      : 4:2:0\nScan type                        : Progressive\nBits/(Pixel*Frame)               : 0.130\nStream size                      : 786 MiB (88%)\nWriting library                  : Lavc51.40.4\n\nAudio\nID                               : 1\nFormat                           : MPEG Audio\nFormat version                   : Version 1\nFormat profile                   : Layer 3\nCodec ID                         : 55\nCodec ID/Hint                    : MP3\nDuration                         : 2h 17mn\nBit rate mode                    : Constant\nBit rate                         : 96.0 Kbps\nChannel(s)                       : 2 channels\nSampling rate                    : 48.0 KHz\nStream size                      : 94.3 MiB (11%)\nAlignment                        : Split accross interleaves\nInterleave, duration             : 24 ms (0.72 video frame)","torrent":{"xt":"urn:btih:6fd4822be9da8c53e8989eeb57397fcdf2324111","amp;dn":"%5BDhamal+Rip%5D+Rann+%282010%29+Repack+DVD+Rip+%5BDare+DEvils%5D","amp;tr":["udp%3A%2F%2Ftracker.openbittorrent.com%3A80","udp%3A%2F%2Fopen.demonii.com%3A1337","udp%3A%2F%2Ftracker.coppersurfer.tk%3A6969","udp%3A%2F%2Fexodus.desync.com%3A6969"],"infoHash":"6fd4822be9da8c53e8989eeb57397fcdf2324111","infoHashBuffer":{"type":"Buffer","data":[111,212,130,43,233,218,140,83,232,152,158,235,87,57,127,205,242,50,65,17]},"announce":[],"urlList":[]}}